<svg width="10" height="12" viewBox="0 0 10 12" fill="none" xmlns="http://www.w3.org/2000/svg">
<path d="M5 6.5917C5.29128 6.5917 5.57602 6.50366 5.81822 6.33872C6.06041 6.17378 6.24918 5.93934 6.36065 5.66505C6.47212 5.39076 6.50128 5.08894 6.44445 4.79775C6.38763 4.50657 6.24736 4.2391 6.04139 4.02917C5.83542 3.81923 5.57301 3.67627 5.28732 3.61835C5.00163 3.56043 4.70551 3.59016 4.4364 3.70377C4.16729 3.81738 3.93728 4.00978 3.77545 4.25664C3.61362 4.50349 3.52725 4.79371 3.52725 5.0906C3.52725 5.48872 3.68241 5.87053 3.95861 6.15204C4.2348 6.43355 4.6094 6.5917 5 6.5917ZM4.47717 11.778C4.54563 11.8483 4.62707 11.9042 4.71681 11.9423C4.80654 11.9804 4.90279 12 5 12C5.09721 12 5.19346 11.9804 5.28319 11.9423C5.37293 11.9042 5.45437 11.8483 5.52283 11.778L8.53461 8.70074C9.23413 7.98813 9.7106 7.08007 9.90373 6.09143C10.0969 5.10278 9.99801 4.07797 9.61964 3.1466C9.24128 2.21523 8.60042 1.41915 7.77812 0.859054C6.95582 0.298956 5.98902 0 5 0C4.01098 0 3.04418 0.298956 2.22188 0.859054C1.39958 1.41915 0.758716 2.21523 0.380354 3.1466C0.00199329 4.07797 -0.0968708 5.10278 0.0962671 6.09143C0.289405 7.08007 0.765868 7.98813 1.46539 8.70074L4.47717 11.778ZM1.48748 4.74535C1.5378 4.21022 1.70473 3.6933 1.97609 3.23233C2.24745 2.77136 2.61639 2.37798 3.05596 2.0809C3.63343 1.69444 4.30918 1.48854 5 1.48854C5.69082 1.48854 6.36656 1.69444 6.94403 2.0809C7.38068 2.37696 7.74753 2.76796 8.01821 3.22578C8.28889 3.6836 8.45666 4.19687 8.50947 4.72868C8.56228 5.26048 8.49881 5.79761 8.32363 6.30143C8.14845 6.80525 7.8659 7.26324 7.49632 7.64247L5 10.1868L2.50368 7.64247C2.13367 7.26692 1.85046 6.81201 1.67467 6.31085C1.49888 5.80968 1.43494 5.27488 1.48748 4.74535Z" fill="#F36532"/>
</svg>
