<svg width="41" height="32" viewBox="0 0 41 32" fill="none" xmlns="http://www.w3.org/2000/svg">
<path d="M16.4546 9.49995C7.32129 14.7731 1.58057 21.7376 3.56224 25.17C5.53183 28.5814 14.5062 27.0784 23.5792 21.8401C32.6523 16.6017 38.4358 9.57193 36.4716 6.16974C34.5073 2.76756 25.5277 4.26156 16.4546 9.49995Z" fill="#003478"/>
<path d="M27.2524 13.2351C27.2731 13.2608 27.3259 13.2664 27.3692 13.2585C27.385 13.2553 27.3965 13.2604 27.4 13.2984C27.4244 13.5771 27.4033 13.7581 27.385 14.0231C27.3686 14.2676 27.315 14.482 27.2302 14.7074C27.1033 15.0488 26.8922 15.4626 26.5282 15.4765C26.3671 15.4838 26.2133 15.3413 26.1347 15.1994C25.9126 14.8012 25.8542 14.2943 25.9485 13.7086C26.0629 12.9934 26.3543 12.4885 26.7209 12.4609C27.0995 12.4311 27.2032 12.8294 27.226 13.176C27.2277 13.2028 27.2379 13.2205 27.2522 13.235L27.2524 13.2351ZM28.6613 8.31897C28.6609 8.26897 28.6225 8.25442 28.575 8.28189C28.327 8.42504 28.002 8.61342 27.7437 8.76258C27.6821 8.7981 27.6546 8.82381 27.6588 8.89795C27.6689 9.13571 27.5123 11.5483 27.4913 12.0113C27.4845 12.0839 27.4359 12.1024 27.3967 12.0463C27.2587 11.8581 26.952 11.7273 26.6148 11.7747C26.3578 11.8104 26.1453 11.9127 25.9498 12.063C25.5973 12.3351 25.3732 12.7333 25.2051 13.1335C24.9519 13.737 24.8193 14.4064 24.5064 15.025C24.3353 15.3622 24.0497 15.7351 23.6639 15.6475C23.3146 15.5679 23.0698 15.0846 23.2087 14.5213C23.2235 14.4621 23.286 14.4688 23.2985 14.5065C23.3603 14.6893 23.4946 14.8291 23.6851 14.8714C23.9155 14.9199 24.1417 14.8098 24.2753 14.6115C24.432 14.376 24.4397 14.0915 24.3397 13.8315C24.1843 13.4282 23.7115 13.2664 23.3402 13.4458C23.0392 13.5925 22.8198 13.8534 22.6783 14.2326C22.6077 14.4233 22.5787 14.5508 22.5577 14.7852C22.5528 14.8428 22.5114 14.8722 22.4777 14.8108C22.2176 14.3298 21.8682 14.1763 21.4719 14.3936C21.1638 14.5617 20.9345 14.9139 20.798 15.2617C20.6492 15.6445 20.5771 16.0796 20.4773 16.507C20.4646 16.5598 20.4356 16.5745 20.3882 16.5135C20.1998 16.2041 19.945 15.9461 19.6753 15.8141C19.5806 15.7687 19.4511 15.7941 19.3895 15.8971C19.3608 15.9443 19.2536 16.0957 19.1968 16.2426C19.1691 16.3164 19.1848 16.3912 19.2547 16.4582C19.6654 16.8459 19.9422 17.3965 20.0119 17.9562C20.0752 18.4692 19.9506 19.0367 19.6244 19.3928C19.4098 19.6277 19.1132 19.7446 18.8098 19.6093C18.3921 19.4219 18.1631 18.8088 18.2411 18.1449C18.3104 17.5599 18.6022 17.0453 18.9462 16.6238C18.9864 16.5739 18.9779 16.5344 18.9378 16.4989C18.8722 16.4403 18.777 16.3637 18.7355 16.3277C18.6329 16.2434 18.5098 16.2914 18.3803 16.3861C18.0818 16.6082 17.8563 16.8845 17.6593 17.2019C17.1434 18.033 17.2158 19.0232 17.2908 19.532C17.3266 19.7766 17.3307 19.9397 17.3069 20.1001C17.2746 20.3161 17.2046 20.5361 17.0714 20.9295C17.0595 20.9653 17.0674 21.0212 17.1124 21.0516C17.1729 21.0928 17.4281 21.2101 17.478 21.2049C17.5345 21.2012 17.5679 21.1412 17.5801 21.115C17.6952 20.8776 17.8041 20.5438 17.8353 20.3421C17.8468 20.2724 17.8982 20.2692 17.9602 20.329C18.2763 20.638 18.7206 20.7828 19.1674 20.6927C19.9856 20.5283 20.5028 19.7839 20.703 18.8925C20.8302 18.3259 20.8158 18.017 20.853 17.7799C20.916 17.3779 20.9984 16.5124 21.291 15.8183C21.3979 15.5629 21.5596 15.3218 21.7155 15.3299C21.8407 15.3363 21.9493 15.4565 21.9566 15.8066C21.9854 17.0809 21.8621 18.6688 21.8783 19.0272C21.8797 19.0902 21.9247 19.1144 21.9744 19.0857C22.2511 18.9241 22.5265 18.766 22.7783 18.6206C22.8194 18.5949 22.8267 18.5644 22.8307 18.5227C22.8699 17.6509 22.9028 16.8236 22.9514 15.96C22.953 15.9098 22.9904 15.9256 23.0007 15.9413C23.0935 16.0816 23.2436 16.2601 23.4054 16.3408C23.7 16.4927 23.9797 16.4695 24.2245 16.3303C24.4202 16.2212 24.5009 16.1344 24.665 15.9354C24.7988 15.774 24.8876 15.6122 24.9492 15.4767C24.9858 15.3987 25.0378 15.4638 25.0426 15.4756C25.2403 16.0356 25.7024 16.5675 26.3484 16.5258C27.1209 16.4751 27.541 15.6769 27.7039 15.0812C27.7202 15.0235 27.7623 15.0043 27.8113 15.0803C27.9031 15.2188 28.0656 15.3522 28.2533 15.4029C28.7565 15.5387 29.3262 15.0408 29.683 14.169C29.9127 13.6102 30.0853 12.9083 30.2006 12.204C30.2046 12.1769 30.198 12.1411 30.1524 12.1272C30.0567 12.0992 29.9293 12.0776 29.8384 12.0568C29.7982 12.0494 29.7624 12.0789 29.7497 12.1091C29.5687 12.7224 29.4588 13.3662 29.1445 14.0275C29.0394 14.2521 28.816 14.5132 28.5914 14.4153C28.504 14.3775 28.4568 14.2827 28.4353 14.1348C28.3684 13.6673 28.66 8.60685 28.6601 8.31821" fill="white"/>
<path d="M17.5788 15.3078C17.6206 15.3563 17.6479 15.3547 17.67 15.3358C17.7785 15.2404 17.8546 15.0618 17.8665 14.8989C17.8777 14.751 17.8233 14.5782 17.7159 14.5584C17.6198 14.5402 17.5244 14.6162 17.4864 14.7293C17.4108 14.9547 17.4756 15.1751 17.5788 15.3079L17.5788 15.3078ZM14.1634 23.5771C13.2683 24.1018 12.1563 24.0039 11.5104 23.095C11.1524 22.5915 11.0288 22.0298 11.1045 21.4646C11.1707 20.9617 11.4562 20.4108 11.7985 20.1189C11.9099 20.0241 12.0855 19.9414 12.2027 19.9844C12.3843 20.0481 12.4333 20.205 12.3567 20.3232C12.1505 20.6411 11.9463 21.0997 11.9737 21.549C11.997 21.9153 12.1666 22.2749 12.5709 22.4773C13.2463 22.8138 14.2608 22.248 14.6944 20.8392C14.8032 20.4928 14.8925 20.1688 14.9635 19.8052C15.1035 19.0964 15.1414 18.8456 15.2505 17.77C15.2513 17.7578 15.2476 17.7446 15.2414 17.7407C15.231 17.733 15.2228 17.7357 15.2057 17.7437C14.8461 17.965 14.5902 18.2578 14.4141 18.6681C14.3624 18.7847 14.2288 18.8497 14.1231 18.7965C14.0047 18.7357 13.9768 18.5837 14.0385 18.4531C14.3368 17.8189 14.8448 17.4418 15.3466 17.027C15.3461 17.0273 15.386 17.0062 15.3936 16.9461C15.4527 16.5215 15.4725 16.1578 15.5448 15.7212C15.6164 15.2792 15.7737 14.8204 15.8959 14.4735C16.0659 13.9882 16.2261 13.7655 16.377 13.5187C16.4175 13.4549 16.3312 13.4564 16.3136 13.4666C14.9516 13.9451 13.5019 14.3836 12.5425 15.5398C11.8795 16.3431 11.8961 17.2271 12.3328 17.572C12.6429 17.8165 13.0904 17.627 13.3711 17.2097C13.604 16.863 13.7565 16.4329 13.779 15.9797C13.7923 15.7275 14.1199 15.7147 14.1681 16.1116C14.2955 17.157 13.9977 18.2165 13.183 18.7244C12.4891 19.1556 11.7325 18.8988 11.3634 18.2561C10.6355 16.9885 11.5633 15.341 12.9724 14.3612C14.6709 13.184 16.6346 12.6838 18.5296 11.8761C19.9813 11.257 21.2842 10.5094 22.4672 9.40868C22.6082 9.28057 22.7807 9.31814 22.8642 9.48705C22.9868 9.73008 22.9353 10.0621 22.6276 10.5664C22.2785 11.1415 21.7932 11.5351 21.2376 11.8619C19.8948 12.6529 18.3335 12.8521 16.8693 13.3206C16.9036 13.3767 16.9578 13.4359 16.9309 13.4993C16.5171 14.447 16.1774 15.3628 16.1788 16.3729C16.1742 16.3989 16.1912 16.4112 16.2162 16.3944C16.5833 16.1556 16.9184 15.9492 17.2557 15.7168C17.3141 15.6752 17.308 15.6591 17.2765 15.6172C17.0943 15.374 16.9986 15.0319 17.1101 14.6942C17.2236 14.3474 17.5043 14.1534 17.7873 14.1926C18.1092 14.2374 18.2692 14.5599 18.2825 14.8633C18.2956 15.1714 18.1645 15.4159 18.004 15.5905C18.004 15.5905 17.9679 15.6231 17.9957 15.657C18.0375 15.7125 18.3903 15.7061 18.4359 15.7323C18.4796 15.7571 18.5014 15.822 18.487 15.8898C18.4774 15.9385 18.4506 15.9944 18.3934 16.0261C18.3471 16.0516 18.3101 16.0518 18.2333 16.054C18.076 16.0583 17.8646 16.038 17.6921 15.9698C17.6336 15.9469 17.6157 15.9561 17.5335 16.0098C17.1636 16.2528 16.6002 16.655 16.2251 16.9389C16.1338 17.0073 16.1302 17.0343 16.1297 17.0799C16.0988 18.5149 16.0723 20.0585 15.7598 21.2621C15.4243 22.5528 14.8757 23.1584 14.1638 23.577" fill="white"/>
<path d="M17.0364 10.5093C8.63411 15.3604 3.16386 21.6144 4.8042 24.4555C6.44467 27.2969 14.5961 25.6868 22.9984 20.8357C31.4006 15.9847 36.8703 9.73068 35.2298 6.8893C33.5895 4.04815 25.4387 5.65825 17.0364 10.5093ZM23.2685 21.3036C14.5603 26.3313 6.04542 27.8857 4.24979 24.7756C2.45389 21.665 8.05782 15.0686 16.766 10.0409C25.4735 5.01368 33.9876 3.45902 35.7835 6.56961C37.5792 9.67973 31.976 16.2764 23.2685 21.3036Z" fill="white"/>
</svg>
